<svg 
 xmlns="http://www.w3.org/2000/svg"
 xmlns:xlink="http://www.w3.org/1999/xlink"
 width="68px" height="66px">
<path fill-rule="evenodd"  fill="rgb(255, 255, 255)"
 d="M56.559,23.902 C52.835,23.902 49.531,22.097 47.444,19.323 L22.992,30.318 C23.524,31.639 23.824,33.079 23.824,34.590 C23.824,35.816 23.626,36.996 23.269,38.104 L47.617,47.409 C49.712,44.766 52.938,43.063 56.559,43.063 C62.860,43.063 67.985,48.204 67.985,54.524 C67.985,60.844 62.860,65.986 56.559,65.986 C50.259,65.986 45.133,60.844 45.133,54.524 C45.133,52.923 45.465,51.398 46.059,50.012 L21.981,40.811 C19.942,43.960 16.412,46.052 12.398,46.052 C6.097,46.052 0.972,40.910 0.972,34.590 C0.972,28.270 6.097,23.128 12.398,23.128 C16.122,23.128 19.426,24.933 21.513,27.708 L45.965,16.712 C45.433,15.391 45.133,13.951 45.133,12.440 C45.133,6.120 50.259,0.979 56.559,0.979 C62.860,0.979 67.985,6.120 67.985,12.440 C67.985,18.760 62.860,23.902 56.559,23.902 ZM56.559,62.997 C61.217,62.997 65.006,59.196 65.006,54.524 C65.006,49.852 61.217,46.052 56.559,46.052 C51.902,46.052 48.113,49.852 48.113,54.524 C48.113,59.196 51.902,62.997 56.559,62.997 ZM12.398,26.117 C7.740,26.117 3.951,29.918 3.951,34.590 C3.951,39.262 7.740,43.063 12.398,43.063 C17.055,43.063 20.844,39.262 20.844,34.590 C20.844,29.918 17.055,26.117 12.398,26.117 ZM56.559,3.967 C51.902,3.967 48.113,7.768 48.113,12.440 C48.113,17.112 51.902,20.913 56.559,20.913 C61.217,20.913 65.006,17.112 65.006,12.440 C65.006,7.768 61.217,3.967 56.559,3.967 Z"/>
</svg>