<svg 
 xmlns="http://www.w3.org/2000/svg"
 xmlns:xlink="http://www.w3.org/1999/xlink"
 width="75px" height="66px">
<path fill-rule="evenodd"  fill="rgb(255, 255, 255)"
 d="M37.494,65.980 C35.777,65.980 34.162,65.312 32.944,64.099 L7.451,38.650 C2.734,34.510 -0.011,28.459 -0.011,22.114 C-0.011,9.914 9.925,-0.012 22.137,-0.012 C27.890,-0.012 33.401,2.226 37.494,6.179 C41.586,2.226 47.097,-0.012 52.848,-0.012 C65.062,-0.012 74.999,9.914 74.999,22.114 C74.999,28.458 72.254,34.509 67.467,38.716 L42.046,64.096 C40.827,65.311 39.210,65.980 37.494,65.980 ZM22.137,2.999 C11.571,2.999 2.974,11.574 2.974,22.114 C2.974,27.588 5.346,32.811 9.482,36.444 L35.043,61.957 C36.351,63.261 38.636,63.261 39.948,61.954 L65.437,36.509 C69.642,32.810 72.014,27.587 72.014,22.114 C72.014,11.574 63.416,2.999 52.848,2.999 C47.403,2.999 42.211,5.314 38.602,9.348 L37.494,10.588 L36.386,9.348 C32.777,5.314 27.584,2.999 22.137,2.999 Z"/>
</svg>