<svg 
 xmlns="http://www.w3.org/2000/svg"
 xmlns:xlink="http://www.w3.org/1999/xlink"
 width="329px" height="377px">
<path fill-rule="evenodd"  fill="rgb(136, 177, 75)"
 d="M327.417,301.274 L279.129,229.170 L279.129,120.346 C279.129,53.985 224.894,-0.005 158.231,-0.005 C91.564,-0.005 37.329,53.985 37.329,120.346 L37.329,229.760 L0.931,302.224 C-0.446,304.969 -0.298,308.226 1.322,310.835 C2.943,313.443 5.802,315.032 8.884,315.032 L87.731,315.032 C92.127,349.897 122.034,376.978 158.231,376.978 C194.427,376.978 224.334,349.897 228.731,315.032 L320.020,315.032 C323.299,315.032 326.311,313.236 327.860,310.358 C329.405,307.481 329.234,303.989 327.417,301.274 ZM158.231,359.279 C131.848,359.279 109.879,340.112 105.634,315.032 L210.827,315.032 C206.582,340.112 184.613,359.279 158.231,359.279 ZM220.458,297.333 L96.003,297.333 L23.268,297.333 L54.171,235.806 C54.787,234.578 55.109,233.223 55.109,231.849 L55.109,120.346 C55.109,63.745 101.368,17.694 158.231,17.694 C215.090,17.694 261.349,63.745 261.349,120.346 L261.349,231.849 C261.349,233.596 261.870,235.304 262.843,236.758 L303.410,297.333 L220.458,297.333 Z"/>
</svg>