<svg 
 xmlns="http://www.w3.org/2000/svg"
 xmlns:xlink="http://www.w3.org/1999/xlink"
 width="76px" height="66px">
<path fill-rule="evenodd"  fill="rgb(255, 255, 255)"
 d="M38.488,65.984 C36.772,65.984 35.157,65.316 33.939,64.103 L8.446,38.655 C3.729,34.514 0.984,28.463 0.984,22.118 C0.984,9.918 10.919,-0.008 23.132,-0.008 C28.885,-0.008 34.396,2.230 38.488,6.183 C42.581,2.230 48.092,-0.008 53.843,-0.008 C66.057,-0.008 75.994,9.918 75.994,22.118 C75.994,28.462 73.248,34.513 68.462,38.720 L43.041,64.100 C41.821,65.315 40.205,65.984 38.488,65.984 ZM23.132,3.003 C12.565,3.003 3.969,11.578 3.969,22.118 C3.969,27.592 6.341,32.815 10.476,36.448 L36.038,61.961 C37.346,63.265 39.631,63.265 40.942,61.958 L66.432,36.513 C70.637,32.814 73.009,27.591 73.009,22.118 C73.009,11.578 64.411,3.003 53.843,3.003 C48.398,3.003 43.206,5.318 39.597,9.352 L38.488,10.592 L37.380,9.352 C33.772,5.318 28.579,3.003 23.132,3.003 Z"/>
</svg>