<svg 
 xmlns="http://www.w3.org/2000/svg"
 xmlns:xlink="http://www.w3.org/1999/xlink"
 width="64px" height="63px">
<path fill-rule="evenodd"  fill="rgb(51, 51, 51)"
 d="M55.533,28.209 L55.533,61.499 C55.533,62.328 54.864,63.000 54.038,63.000 C53.213,63.000 52.544,62.328 52.544,61.499 L52.544,28.209 C47.761,27.481 44.080,23.340 44.080,18.340 C44.080,13.340 47.761,9.199 52.544,8.471 L52.544,1.500 C52.544,0.671 53.213,-0.000 54.038,-0.000 C54.864,-0.000 55.533,0.671 55.533,1.500 L55.533,8.471 C60.316,9.199 63.997,13.340 63.997,18.340 C63.997,23.340 60.316,27.481 55.533,28.209 ZM55.533,11.512 C55.051,11.406 54.552,11.346 54.038,11.346 C53.525,11.346 53.026,11.406 52.544,11.512 C49.418,12.202 47.069,14.999 47.069,18.340 C47.069,21.681 49.418,24.479 52.544,25.168 C53.026,25.274 53.525,25.334 54.038,25.334 C54.552,25.334 55.051,25.274 55.533,25.168 C58.659,24.479 61.007,21.681 61.007,18.340 C61.007,14.999 58.659,12.202 55.533,11.512 ZM33.496,54.362 L33.496,61.499 C33.496,62.328 32.827,63.000 32.001,63.000 C31.176,63.000 30.507,62.328 30.507,61.499 L30.507,54.362 C25.724,53.635 22.043,49.493 22.043,44.494 C22.043,39.494 25.724,35.353 30.507,34.625 L30.507,1.500 C30.507,0.671 31.176,-0.000 32.001,-0.000 C32.827,-0.000 33.496,0.671 33.496,1.500 L33.496,34.625 C38.279,35.353 41.960,39.494 41.960,44.494 C41.960,49.493 38.279,53.635 33.496,54.362 ZM33.496,37.666 C33.014,37.560 32.515,37.500 32.001,37.500 C31.488,37.500 30.989,37.560 30.507,37.666 C27.380,38.355 25.032,41.153 25.032,44.494 C25.032,47.835 27.380,50.632 30.507,51.321 C30.989,51.427 31.488,51.487 32.001,51.487 C32.515,51.487 33.014,51.427 33.496,51.321 C36.622,50.632 38.970,47.835 38.970,44.494 C38.970,41.153 36.622,38.355 33.496,37.666 ZM11.443,28.209 L11.443,61.499 C11.443,62.328 10.774,63.000 9.948,63.000 C9.122,63.000 8.453,62.328 8.453,61.499 L8.453,28.209 C3.671,27.481 -0.010,23.340 -0.010,18.340 C-0.010,13.340 3.671,9.199 8.453,8.471 L8.453,1.500 C8.453,0.671 9.122,-0.000 9.948,-0.000 C10.774,-0.000 11.443,0.671 11.443,1.500 L11.443,8.471 C16.225,9.199 19.906,13.341 19.906,18.340 C19.906,23.339 16.225,27.481 11.443,28.209 ZM11.443,11.512 C10.961,11.406 10.462,11.346 9.948,11.346 C9.435,11.346 8.935,11.406 8.453,11.512 C5.327,12.202 2.979,14.999 2.979,18.340 C2.979,21.681 5.327,24.479 8.453,25.168 C8.935,25.274 9.435,25.334 9.948,25.334 C10.462,25.334 10.961,25.274 11.443,25.168 C14.569,24.479 16.917,21.681 16.917,18.340 C16.917,14.999 14.569,12.202 11.443,11.512 Z"/>
</svg>