<svg 
 xmlns="http://www.w3.org/2000/svg"
 xmlns:xlink="http://www.w3.org/1999/xlink"
 width="75px" height="75px">
<path fill-rule="evenodd"  fill="rgb(51, 51, 51)"
 d="M69.833,44.921 C68.890,44.921 68.049,45.541 67.788,46.428 C67.161,48.561 66.301,50.637 65.232,52.598 C64.786,53.415 64.940,54.451 65.607,55.118 C67.619,57.130 67.619,60.401 65.609,62.412 L62.404,65.616 C60.394,67.626 57.123,67.627 55.113,65.616 C54.443,64.947 53.407,64.793 52.590,65.238 C50.634,66.306 48.558,67.166 46.421,67.795 C45.534,68.056 44.914,68.898 44.914,69.840 C44.914,72.684 42.601,74.997 39.758,74.997 L35.227,74.997 C32.384,74.997 30.071,72.684 30.071,69.840 C30.071,68.898 29.451,68.056 28.563,67.795 C26.426,67.166 24.350,66.306 22.394,65.238 C21.579,64.792 20.542,64.947 19.874,65.614 C17.862,67.627 14.591,67.627 12.580,65.616 L9.376,62.412 C7.366,60.401 7.366,57.130 9.376,55.120 C10.044,54.451 10.199,53.415 9.753,52.598 C8.684,50.638 7.824,48.562 7.196,46.428 C6.935,45.541 6.094,44.921 5.151,44.921 C2.308,44.921 -0.005,42.608 -0.005,39.765 L-0.005,35.234 C-0.005,32.391 2.308,30.078 5.151,30.078 C6.094,30.078 6.935,29.458 7.196,28.571 C7.824,26.436 8.684,24.360 9.753,22.402 C10.199,21.584 10.045,20.548 9.378,19.881 L9.312,19.814 C7.366,17.799 7.387,14.576 9.376,12.587 L12.580,9.383 C13.554,8.409 14.849,7.873 16.226,7.873 C17.603,7.873 18.898,8.409 19.872,9.383 C20.541,10.052 21.577,10.206 22.394,9.760 C24.353,8.692 26.428,7.832 28.563,7.203 C29.451,6.942 30.071,6.101 30.071,5.158 C30.071,2.316 32.384,0.003 35.227,0.003 L39.758,0.003 C42.601,0.003 44.914,2.316 44.914,5.158 C44.914,6.101 45.534,6.942 46.421,7.203 C48.556,7.832 50.632,8.692 52.590,9.760 C53.407,10.206 54.443,10.052 55.111,9.385 C57.124,7.373 60.394,7.373 62.404,9.383 L65.609,12.587 C66.583,13.561 67.119,14.855 67.119,16.233 C67.119,17.580 66.606,18.849 65.672,19.814 L65.607,19.881 C64.940,20.548 64.786,21.584 65.232,22.402 C66.300,24.360 67.160,26.436 67.788,28.571 C68.049,29.458 68.890,30.078 69.833,30.078 C72.676,30.078 74.989,32.391 74.989,35.234 L74.989,39.765 C74.989,42.608 72.676,44.921 69.833,44.921 ZM71.980,35.234 C71.980,34.050 71.017,33.086 69.833,33.086 C67.565,33.086 65.537,31.579 64.902,29.420 C64.334,27.490 63.556,25.614 62.590,23.842 C61.524,21.887 61.866,19.424 63.416,17.818 L63.481,17.751 C63.887,17.346 64.110,16.807 64.110,16.233 C64.110,15.660 63.887,15.120 63.481,14.714 L60.277,11.511 C59.440,10.674 58.078,10.672 57.240,11.511 C55.634,13.116 53.130,13.482 51.149,12.402 C49.379,11.436 47.502,10.658 45.571,10.090 C43.412,9.454 41.905,7.426 41.905,5.158 C41.905,3.975 40.942,3.011 39.758,3.011 L35.227,3.011 C34.043,3.011 33.080,3.975 33.080,5.158 C33.080,7.426 31.572,9.454 29.412,10.090 C27.482,10.658 25.606,11.436 23.835,12.402 C21.854,13.481 19.351,13.116 17.746,11.513 C16.907,10.673 15.544,10.674 14.708,11.511 L11.503,14.714 C10.666,15.552 10.666,16.914 11.503,17.751 L11.569,17.818 C13.119,19.424 13.461,21.887 12.394,23.842 C11.428,25.614 10.651,27.490 10.083,29.420 C9.448,31.579 7.420,33.086 5.151,33.086 C3.967,33.086 3.004,34.050 3.004,35.234 L3.004,39.765 C3.004,40.949 3.967,41.912 5.151,41.912 C7.420,41.912 9.448,43.420 10.083,45.579 C10.651,47.508 11.428,49.385 12.394,51.157 C13.475,53.138 13.109,55.642 11.505,57.246 C10.666,58.085 10.666,59.447 11.503,60.284 L14.708,63.489 C15.544,64.325 16.906,64.326 17.744,63.489 C18.734,62.499 20.064,61.980 21.402,61.980 C22.237,61.980 23.074,62.182 23.835,62.597 C25.604,63.562 27.480,64.340 29.413,64.909 C31.572,65.544 33.080,67.572 33.080,69.840 C33.080,71.024 34.043,71.988 35.227,71.988 L39.758,71.988 C40.942,71.988 41.905,71.024 41.905,69.840 C41.905,67.572 43.412,65.544 45.571,64.909 C47.503,64.340 49.380,63.563 51.149,62.597 C53.130,61.516 55.634,61.882 57.238,63.487 C58.077,64.326 59.439,64.325 60.277,63.489 L63.481,60.284 C64.318,59.447 64.318,58.085 63.481,57.248 C61.875,55.642 61.510,53.138 62.590,51.157 C63.557,49.384 64.334,47.507 64.901,45.579 C65.537,43.420 67.565,41.912 69.833,41.912 C71.017,41.912 71.980,40.949 71.980,39.765 L71.980,35.234 ZM37.492,49.812 C30.703,49.812 25.180,44.288 25.180,37.499 C25.180,30.711 30.703,25.188 37.492,25.188 C44.281,25.188 49.804,30.711 49.804,37.499 C49.804,44.288 44.281,49.812 37.492,49.812 ZM37.492,28.197 C32.363,28.197 28.189,32.370 28.189,37.499 C28.189,42.629 32.363,46.803 37.492,46.803 C42.622,46.803 46.795,42.629 46.795,37.499 C46.795,32.370 42.622,28.197 37.492,28.197 Z"/>
</svg>