<svg 
 xmlns="http://www.w3.org/2000/svg"
 xmlns:xlink="http://www.w3.org/1999/xlink"
 width="75px" height="75px">
<path fill-rule="evenodd"  fill="rgb(51, 51, 51)"
 d="M39.613,37.572 L74.420,2.699 C75.004,2.115 75.004,1.166 74.420,0.582 C73.836,-0.003 72.890,-0.003 72.307,0.582 L37.500,35.455 L2.693,0.582 C2.109,-0.003 1.163,-0.003 0.580,0.582 C-0.004,1.166 -0.004,2.115 0.580,2.699 L35.387,37.572 L0.580,72.445 C-0.004,73.030 -0.004,73.978 0.580,74.563 C0.871,74.855 1.254,75.001 1.636,75.001 C2.019,75.001 2.401,74.855 2.693,74.563 L37.500,39.689 L72.307,74.563 C72.599,74.855 72.981,75.001 73.363,75.001 C73.746,75.001 74.128,74.855 74.420,74.563 C75.004,73.978 75.004,73.030 74.420,72.445 L39.613,37.572 Z"/>
</svg>