<svg 
 xmlns="http://www.w3.org/2000/svg"
 xmlns:xlink="http://www.w3.org/1999/xlink"
 width="75px" height="66px">
<path fill-rule="evenodd"  fill="rgb(255, 255, 255)"
 d="M37.493,65.993 C35.776,65.993 34.161,65.325 32.943,64.112 L7.450,38.664 C2.733,34.523 -0.012,28.472 -0.012,22.128 C-0.012,9.927 9.923,0.001 22.136,0.001 C27.889,0.001 33.400,2.240 37.493,6.192 C41.585,2.240 47.096,0.001 52.847,0.001 C65.061,0.001 74.998,9.927 74.998,22.128 C74.998,28.472 72.253,34.522 67.466,38.729 L42.045,64.109 C40.825,65.324 39.209,65.993 37.493,65.993 ZM22.136,3.013 C11.570,3.013 2.973,11.588 2.973,22.128 C2.973,27.601 5.345,32.824 9.480,36.457 L35.042,61.970 C36.350,63.274 38.635,63.274 39.947,61.967 L65.436,36.522 C69.641,32.823 72.013,27.600 72.013,22.128 C72.013,11.588 63.415,3.013 52.847,3.013 C47.402,3.013 42.210,5.327 38.601,9.362 L37.493,10.601 L36.384,9.362 C32.776,5.327 27.583,3.013 22.136,3.013 Z"/>
</svg></svg>